<?xml version="1.0" encoding="utf-8"?>
<!-- Generator: Adobe Illustrator 16.0.4, SVG Export Plug-In . SVG Version: 6.00 Build 0)  -->
<!DOCTYPE svg PUBLIC "-//W3C//DTD SVG 1.1//EN" "http://www.w3.org/Graphics/SVG/1.1/DTD/svg11.dtd">
<svg version="1.1" id="Isolation_Mode" xmlns="http://www.w3.org/2000/svg" xmlns:xlink="http://www.w3.org/1999/xlink" x="0px"
	 y="0px" width="248.667px" height="58px" viewBox="0 -1.333 248.667 58" enable-background="new 0 -1.333 248.667 58"
	 xml:space="preserve">
<g>
	<path fill="#C60C30" d="M111.784,42.349c5.039-2.056,11.003-4.216,13.059-4.832l2.469,4.216
		c-2.983,0.515-10.488,2.364-17.173,4.112c-8.946,2.571-15.938,5.039-22.724,7.404C93.481,50.164,102.016,46.359,111.784,42.349
		L111.784,42.349z M131.115,35.768c0.31-0.102,0.617-0.102,0.926-0.205c4.318-0.926,9.46-1.131,11.208,1.029
		c-0.514-1.955,1.027-4.833,2.365-6.375c0.308-0.309,0.72-0.72,1.131-1.131c1.027-0.823,2.365-1.646,4.01-2.571
		c12.75-6.787,43.289-15.938,66.014-23.958c-33.83,14.292-52.03,19.845-62.518,30.847c-4.318,4.524-6.169,8.535-6.992,13.677
		c-2.775-2.571-6.169-5.451-12.853-5.759L131.115,35.768L131.115,35.768z"/>
	<polygon fill="#747678" points="45.565,27.029 49.37,27.029 49.37,50.884 45.565,50.884 	"/>
	<polygon fill="#747678" points="82.17,27.029 108.905,27.029 108.905,29.394 97.389,29.394 97.389,47.388 93.584,49.238 
		93.584,29.394 82.17,29.394 	"/>
	<polygon fill="#747678" points="188.49,27.029 212.758,27.029 212.758,29.394 192.296,29.394 192.296,37.723 206.897,37.723 
		206.897,39.983 192.296,39.983 192.296,48.622 213.272,48.622 213.272,50.884 188.49,50.884 	"/>
	<polygon fill="#747678" points="217.283,27.029 244.017,27.029 244.017,29.394 232.5,29.394 232.5,50.884 228.696,50.884 
		228.696,29.394 217.283,29.394 	"/>
	<path fill="#747678" d="M182.321,42.247c0,5.553-3.394,9.254-12.544,9.254c-8.226,0-12.956-2.674-12.956-7.814v-0.721h3.907v0.618
		c0,3.187,2.981,5.552,9.049,5.552c6.58,0,8.534-2.57,8.534-6.581V19.934c1.233-0.617,2.571-1.131,3.907-1.748v24.061H182.321z"/>
	<path fill="#747678" d="M57.39,45.332c3.188,2.57,6.375,3.701,10.694,3.599c1.851-0.104,3.393-0.104,5.141-0.617
		c1.646-0.411,2.776-1.028,3.599-1.748c0.823-0.721,1.234-1.439,1.131-2.159c0-0.822-0.72-1.646-1.954-2.468
		c-1.747-1.131-4.833-2.057-8.945-3.188c-3.394-1.027-6.478-1.953-7.712-2.775c-1.646-1.028-2.571-2.364-2.571-3.702
		c0-1.028,0.411-2.056,1.337-2.982c0.925-0.925,2.262-1.438,4.01-1.953c1.749-0.514,3.497-0.72,5.553-0.823
		c2.159-0.103,4.216,0.206,6.169,0.617c2.263,0.514,4.011,1.131,5.655,2.263l-1.953,1.954c-1.646-1.028-3.394-1.748-4.936-2.058
		c-1.44-0.308-3.085-0.513-4.833-0.411c-2.262,0.103-3.907,0.411-5.347,1.028c-1.131,0.514-1.748,1.13-1.953,2.262
		c-0.206,1.851,1.233,2.057,3.599,2.981c1.953,0.823,4.421,1.44,5.964,1.955c2.262,0.719,4.113,1.233,5.553,1.746
		c1.439,0.515,2.57,1.029,3.393,1.646c1.542,1.234,2.365,2.571,2.365,3.806c0.103,1.851-1.131,3.599-3.599,5.037
		c-2.467,1.44-5.552,1.853-9.151,1.955c-2.878,0.103-5.449-0.31-7.814-1.028c-2.16-0.617-4.113-1.646-6.067-3.188L57.39,45.332
		L57.39,45.332z"/>
	<polygon fill="#747678" points="21.196,50.781 24.486,50.781 41.041,22.299 36.927,22.299 22.944,46.462 9.062,22.299 
		4.744,22.299 	"/>
	<path fill="#747678" d="M124.123,27.029l14.293,23.855h-4.113l-4.729-8.123l-7.198-12.236l-5.039,8.225
		c-1.645,0.617-3.289,1.233-4.935,1.853l8.638-13.574H124.123L124.123,27.029z M112.607,46.668l-2.571,4.216h-4.009l1.747-2.879
		C109.521,47.49,111.064,47.08,112.607,46.668L112.607,46.668z"/>
</g>
</svg>
